<?xml version="1.0" encoding="utf-8"?>
<!-- Generator: Adobe Illustrator 24.3.0, SVG Export Plug-In . SVG Version: 6.00 Build 0)  -->
<svg version="1.1" id="Layer_1" xmlns="http://www.w3.org/2000/svg" xmlns:xlink="http://www.w3.org/1999/xlink" x="0px" y="0px"
	 viewBox="0 0 1025 768" style="enable-background:new 0 0 1025 768;" xml:space="preserve">
<style type="text/css">
	.st0{fill:#006837;}
	.st1{fill:#009245;}
	.st2{fill:#FFFFFF;}
	.st3{font-family: 'Open Sans Condensed', sans-serif;}
	.st4{font-size:10rem; font-weight:bold;}
</style>
<g id="trees">
	<g>
		<polygon class="st0" points="744.7,529.2 802.7,438.9 766.6,438.9 826.2,364.6 790.2,364.6 826.2,299.1 805.8,299.1 848.2,224.8
			848.2,529.2 		"/>
		<polygon class="st1" points="952.5,529.9 894,439.6 930.3,439.6 870.2,365.4 906.6,365.4 870.2,299.8 890.8,299.8 848.1,225.6
			848.1,529.9 		"/>
	</g>
	<g>
		<polygon class="st0" points="77.4,529.9 135.5,439.6 99.4,439.6 159,365.3 123,365.3 159,299.7 138.6,299.7 181,225.4 181,529.9
					"/>
		<polygon class="st1" points="283.5,528.8 225.5,439 261.5,439 201.9,365.2 238,365.2 201.9,300 222.3,300 180,226.2 180,528.8
			"/>
	</g>
	<g>
		<polygon class="st0" points="180.1,529.8 262.4,402.4 211.2,402.4 295.7,297.5 244.6,297.5 295.7,205 266.8,205 326.8,100.1
			326.8,529.8 		"/>
		<polygon class="st1" points="472.9,529.9 390.6,402.7 441.7,402.7 357.3,298.1 408.4,298.1 357.3,205.8 386.2,205.8 326.2,101.1
			326.2,529.9 		"/>
	</g>
	<g>
		<polygon class="st0" points="569.1,529.8 651.3,402.4 600.2,402.4 684.7,297.5 633.5,297.5 684.7,205 655.8,205 715.8,100.1
			715.8,529.8 		"/>
		<polygon class="st1" points="861.8,529.9 779.6,402.7 830.7,402.7 746.2,298.1 797.4,298.1 746.2,205.8 775.1,205.8 715.1,101.1
			715.1,529.9 		"/>
	</g>
	<g>
		<polygon class="st0" points="342.5,529.9 444.6,371.6 381.1,371.6 486,241.4 422.5,241.4 486,126.5 450.1,126.5 524.6,-3.7
			524.6,529.9 		"/>
		<polygon class="st1" points="706.2,529.9 604.2,372 667.6,372 562.8,242.1 626.2,242.1 562.8,127.5 598.7,127.5 524.2,-2.5
			524.2,529.9 		"/>
	</g>
</g>
<g id="_x34_Tree">
	<text transform="matrix(1.1627 0 0 1 74.5558 761.6382)" class="st2 st3 st4">FIVE TREE</text>
</g>
</svg>
